<svg width="43" height="36" viewBox="0 0 43 36" fill="none" xmlns="http://www.w3.org/2000/svg">
<path d="M2.05821 16.1822C1.98622 15.8936 1.98093 15.5924 2.04274 15.3014C2.10455 15.0104 2.23183 14.7374 2.41493 14.5029C2.59803 14.2685 2.83213 14.0789 3.09946 13.9484C3.36679 13.8179 3.66033 13.7501 3.95779 13.75H38.1111C38.4086 13.7501 38.7021 13.8179 38.9695 13.9484C39.2368 14.0789 39.4709 14.2685 39.654 14.5029C39.8371 14.7374 39.9644 15.0104 40.0262 15.3014C40.088 15.5924 40.0827 15.8936 40.0107 16.1822L36.4642 30.3665C36.2524 31.2138 35.7634 31.966 35.0751 32.5036C34.3867 33.0411 33.5384 33.3332 32.665 33.3333H9.40392C8.53052 33.3332 7.68222 33.0411 6.99386 32.5036C6.30549 31.966 5.81655 31.2138 5.60475 30.3665L2.05821 16.1842V16.1822Z" stroke="#F4900C" stroke-width="4" stroke-linejoin="round"/>
<path d="M15.1602 21.5833V25.4999" stroke="#F4900C" stroke-width="4" stroke-linecap="round"/>
<path d="M26.9102 21.5833V25.4999" stroke="#F4900C" stroke-width="4" stroke-linecap="round"/>
<path d="M9.28516 13.75L17.1185 2" stroke="#F4900C" stroke-width="4" stroke-linecap="round"/>
<path d="M32.7845 13.75L24.9512 2" stroke="#F4900C" stroke-width="4" stroke-linecap="round"/>
</svg>
