<svg width="47" height="42" viewBox="0 0 47 42" fill="none" xmlns="http://www.w3.org/2000/svg">
<g clip-path="url(#clip0_31_1756)">
<path d="M23.5 44C35.9264 44 46 42.6569 46 41C46 39.3431 35.9264 38 23.5 38C11.0736 38 1 39.3431 1 41C1 42.6569 11.0736 44 23.5 44Z" fill="#844C22" fill-opacity="0.2"/>
<path d="M17.2193 18.8521L15.7658 19.1235C14.5801 18.8084 13.6782 18.1769 13.0593 17.2284C12.1322 15.8065 12.8578 14.7703 13.5839 13.7332C14.068 13.0419 14.0002 12.2216 13.3816 11.2745C12.234 10.4709 12.1447 9.37807 13.1129 7.99534C14.0805 6.61343 15.5234 6.07827 17.4412 6.39205C17.9645 5.47049 18.4121 5.06126 18.8402 5.20838L20.2181 5.68126C20.4582 2.89755 21.2395 1.4767 22.5611 1.41814C23.8835 1.36016 25.7671 2.43247 28.2113 4.63589C28.4234 4.1289 28.9322 3.91138 29.7368 3.98277C30.5413 4.05415 31.3355 4.44544 32.1174 5.15771C33.4274 3.28677 34.6852 2.60977 35.8905 3.12531C37.0957 3.64086 36.688 4.61888 35.8898 7.99573C36.7657 9.65643 38.4048 9.74579 38.805 10.1908C39.2057 10.6349 38.3203 11.5507 38.0678 12.5215C39.4458 12.9944 34.9311 13.7409 35.2734 14.4725C35.6157 15.2041 38.8381 15.5219 38.0678 16.6221L38.2433 19.2865C38.7588 19.9747 36.008 20.976 35.8895 21.5498C35.7731 22.1239 38.0308 22.3655 36.7657 23.0129L36.6678 23.0237C36.8997 23.1336 37.0786 23.2321 37.2047 23.3204C37.9313 23.8291 38.1236 24.7366 37.035 26.2913C36.3088 27.3284 35.4459 27.6507 34.4462 27.2583C33.8728 26.8568 33.2225 26.5651 32.4948 26.3839C31.4044 26.1123 31.2666 27.5016 29.5318 27.261C27.7979 27.0211 27.3889 25.7606 26.6722 25.2587C26.1946 24.9243 25.3857 25.2601 24.2478 26.2663L18.9479 22.5553C19.1237 21.2843 18.9727 20.2777 18.4962 19.5338C18.2187 19.1003 17.7931 18.873 17.2193 18.8521Z" fill="#ADCC7D" stroke="#844C22" stroke-linecap="round" stroke-linejoin="round"/>
<path d="M2.17578 19.333C3.30878 15.487 6.15878 11.779 10.7268 8.21001C15.2948 4.64101 19.4918 2.65801 23.3188 2.26001L23.8328 2.48501C24.4447 2.75383 24.8877 3.30345 25.0204 3.95851C25.1531 4.61358 24.9589 5.29226 24.4998 5.77801C20.2878 6.47801 16.4158 8.20801 12.8818 10.968C9.34778 13.729 6.82178 17.183 5.30378 21.33C4.63477 21.5887 3.8834 21.5208 3.27164 21.1463C2.65988 20.7718 2.25765 20.1335 2.18378 19.42L2.17578 19.333Z" fill="#F6E7B5" stroke="#844C22" stroke-linecap="round" stroke-linejoin="round"/>
<path d="M2.83984 19.9701C4.31184 15.9341 7.10984 12.3051 11.2378 9.08007C15.3638 5.85607 19.6828 3.97107 24.1938 3.42407C24.5638 3.69007 24.7138 4.16807 24.5638 4.59807L24.3368 5.25007C19.3438 6.16707 15.2508 7.87307 12.0588 10.3681C8.86584 12.8621 6.15884 16.3951 3.93784 20.9681C3.43784 20.8751 3.02784 20.5201 2.86384 20.0391L2.83984 19.9701Z" fill="#FFB46B"/>
<path d="M28.4573 33.6961L4.36328 21.1021C6.31628 16.8341 8.93328 13.4171 12.2173 10.8521C15.5003 8.2861 19.7613 6.5361 24.9993 5.6001L30.0713 32.4351L28.4573 33.6961Z" fill="#F83825" stroke="#844C22" stroke-linecap="round" stroke-linejoin="round"/>
<path d="M28.795 33.4321L8.64503 23.3341C7.82203 17.5161 9.14403 13.2531 12.611 10.5441C16.078 7.83509 20.484 7.59908 25.827 9.83408L30.5 32.1001L28.795 33.4321Z" fill="#F3F3F3" stroke="#844C22" stroke-linecap="round" stroke-linejoin="round"/>
<path d="M29.4062 32.4301L9.99915 22.1761C9.42015 17.3261 10.6152 13.7401 13.5842 11.4211C16.5522 9.10206 20.5572 9.02006 25.5992 11.1741L30.0812 31.8281L29.4062 32.4301Z" fill="#F6E7B5"/>
<path d="M27.6798 34.222L28.8298 33.68L34.8648 26.3C28.3518 24.183 25.2308 22.5 25.4998 21.25C25.9048 19.378 26.1858 15.707 24.6218 15.072C23.0578 14.438 19.0898 16.365 20.2648 19.087C21.4398 21.807 25.7218 27.254 24.8848 28.288C24.0468 29.323 17.1378 27.888 17.1878 25.201C17.2378 22.515 14.7478 19.841 13.4408 20.234C12.5698 20.496 12.2138 21.682 12.3728 23.792L27.6798 34.222Z" fill="#FFB46B"/>
<path d="M17.1072 15.817C15.7542 16.088 14.1282 14.562 14.9222 12.511C15.7152 10.461 17.7272 9.24304 20.5492 10.432C22.4302 11.225 24.1532 11.598 25.7172 11.552L26.4732 15.085C23.0872 12.871 20.9132 11.837 19.9502 11.982C18.5062 12.199 18.4602 15.546 17.1072 15.817Z" fill="#FFB46B"/>
<path d="M12.6808 18.5001C11.4431 19.4671 11.2237 21.2544 12.1907 22.4921C13.1577 23.7298 14.945 23.9493 16.1827 22.9823C17.4205 22.0152 17.6399 20.2279 16.6729 18.9902C15.7059 17.7525 13.9186 17.533 12.6808 18.5001Z" fill="#E2475A" stroke="#844C22"/>
<path d="M13.1883 18.6649C12.3245 19.0048 11.442 20.6918 12.3935 22.0867C12.7961 22.6968 13.4514 23.0939 14.1786 23.1685C14.9057 23.2432 15.628 22.9875 16.1462 22.4719C14.6618 22.9401 13.5816 22.68 12.9075 21.6953C12.2329 20.7084 12.327 19.6983 13.1891 18.6643L13.1883 18.6649Z" fill="#EE8E9A"/>
<path d="M14.9572 20.0932C14.522 20.4332 14.4449 21.0617 14.7849 21.4969C15.1249 21.9321 15.7533 22.0093 16.1886 21.6693C16.6238 21.3292 16.7009 20.7008 16.3609 20.2656C16.0209 19.8304 15.3924 19.7532 14.9572 20.0932Z" fill="#EE8E9A"/>
<path d="M13.176 20.4531C12.7408 20.7931 12.6636 21.4216 13.0036 21.8568C13.3436 22.292 13.9721 22.3691 14.4073 22.0291C14.8425 21.6891 14.9197 21.0606 14.5797 20.6254C14.2396 20.1902 13.6112 20.1131 13.176 20.4531Z" fill="#EE8E9A"/>
<path d="M13.9572 18.8127C13.522 19.1527 13.4449 19.7812 13.7849 20.2164C14.1249 20.6516 14.7533 20.7288 15.1886 20.3887C15.6238 20.0487 15.7009 19.4203 15.3609 18.9851C15.0209 18.5499 14.3924 18.4727 13.9572 18.8127Z" fill="#EE8E9A"/>
<path d="M20.1418 21.553C18.9041 22.5201 18.6846 24.3074 19.6516 25.5451C20.6186 26.7828 22.4059 27.0023 23.6437 26.0352C24.8814 25.0682 25.1008 23.2809 24.1338 22.0432C23.1668 20.8055 21.3795 20.586 20.1418 21.553Z" fill="#E2475A" stroke="#844C22"/>
<path d="M20.6493 21.7179C19.7854 22.0578 18.9029 23.7448 19.8544 25.1397C20.2571 25.7497 20.9123 26.1469 21.6395 26.2215C22.3667 26.2962 23.0889 26.0405 23.6071 25.5249C22.1227 25.9931 21.0426 25.7329 20.3684 24.7482C19.6938 23.7614 19.7879 22.7513 20.6501 21.7173L20.6493 21.7179Z" fill="#EE8E9A"/>
<path d="M22.4182 23.1462C21.983 23.4862 21.9058 24.1147 22.2458 24.5499C22.5858 24.9851 23.2143 25.0622 23.6495 24.7222C24.0847 24.3822 24.1619 23.7538 23.8218 23.3186C23.4818 22.8834 22.8534 22.8062 22.4182 23.1462Z" fill="#EE8E9A"/>
<path d="M20.6369 23.5061C20.2017 23.8461 20.1245 24.4745 20.4646 24.9097C20.8046 25.3449 21.433 25.4221 21.8682 25.0821C22.3034 24.7421 22.3806 24.1136 22.0406 23.6784C21.7006 23.2432 21.0721 23.1661 20.6369 23.5061Z" fill="#EE8E9A"/>
<path d="M21.4182 21.8657C20.983 22.2057 20.9058 22.8342 21.2458 23.2694C21.5858 23.7046 22.2143 23.7817 22.6495 23.4417C23.0847 23.1017 23.1619 22.4732 22.8218 22.038C22.4818 21.6028 21.8534 21.5257 21.4182 21.8657Z" fill="#EE8E9A"/>
<path d="M20.3879 13.7463C19.1501 14.7133 18.9307 16.5006 19.8977 17.7383C20.8647 18.976 22.652 19.1955 23.8898 18.2285C25.1275 17.2615 25.3469 15.4742 24.3799 14.2364C23.4129 12.9987 21.6256 12.7793 20.3879 13.7463Z" fill="#E2475A" stroke="#844C22"/>
<path d="M20.8954 13.9112C20.0315 14.2511 19.149 15.938 20.1005 17.3329C20.5032 17.943 21.1584 18.3401 21.8856 18.4148C22.6128 18.4894 23.335 18.2337 23.8532 17.7182C22.3688 18.1863 21.2886 17.9262 20.6145 16.9415C19.9399 15.9546 20.034 14.9445 20.8962 13.9105L20.8954 13.9112Z" fill="#EE8E9A"/>
<path d="M22.6643 15.3394C22.2291 15.6795 22.1519 16.3079 22.4919 16.7431C22.8319 17.1783 23.4604 17.2555 23.8956 16.9155C24.3308 16.5754 24.408 15.947 24.0679 15.5118C23.7279 15.0766 23.0995 14.9994 22.6643 15.3394Z" fill="#EE8E9A"/>
<path d="M20.883 15.6993C20.4478 16.0393 20.3706 16.6678 20.7107 17.103C21.0507 17.5382 21.6791 17.6153 22.1143 17.2753C22.5495 16.9353 22.6267 16.3069 22.2867 15.8717C21.9467 15.4365 21.3182 15.3593 20.883 15.6993Z" fill="#EE8E9A"/>
<path d="M21.6643 14.0589C21.2291 14.3989 21.1519 15.0274 21.4919 15.4626C21.8319 15.8978 22.4604 15.975 22.8956 15.6349C23.3308 15.2949 23.408 14.6665 23.0679 14.2313C22.7279 13.7961 22.0995 13.7189 21.6643 14.0589Z" fill="#EE8E9A"/>
<path d="M40.7541 6.68266C40.1861 6.15237 40.0585 5.25209 40.4948 4.52607C40.9923 3.69804 42.0355 3.41024 42.825 3.88459C43.2788 4.16137 43.5703 4.64091 43.6071 5.17116C44.0865 4.96343 44.643 4.97699 45.1102 5.25769C45.8988 5.73152 46.1353 6.78827 45.6378 7.6163C45.1639 8.40489 44.1975 8.70269 43.4246 8.32113L38.0137 17.3265L35.3282 15.7129L40.7541 6.68266Z" fill="#FBF4DE" stroke="#8B572A"/>
<path d="M37.8576 24.4482C40.3653 20.2747 40.7339 13.1277 38.9039 12.0281C37.0738 10.9285 30.9365 14.6093 28.4287 18.7828C25.9215 22.9555 25.999 27.6068 28.6031 29.1715C31.2072 30.7361 35.3504 28.6209 37.8576 24.4482Z" fill="#FFB46B" stroke="#8B572A"/>
<path opacity="0.388" d="M35.1244 23.1731C36.6889 20.5694 36.9977 17.8823 35.8142 17.1711C34.6307 16.46 32.403 17.9943 30.8386 20.598C29.2741 23.2017 28.9653 25.8889 30.1488 26.6C31.3323 27.3111 33.5599 25.7769 35.1244 23.1731Z" fill="#F3F3F3"/>
<path d="M7.22922 25.772L38.7012 25.097L38.6692 41.3L7.19922 41.376L7.22922 25.772Z" fill="#F9D8A0" stroke="#8B572A" stroke-linecap="round" stroke-linejoin="round"/>
<path d="M1.51367 25.652L4.06267 22.943L41.8807 22.843L44.0207 25.276L1.51367 25.652Z" fill="#F3F3F3" stroke="#944923" stroke-linecap="round" stroke-linejoin="round"/>
</g>
<defs>
<clipPath id="clip0_31_1756">
<rect width="47" height="42" fill="white"/>
</clipPath>
</defs>
</svg>
