<svg width="36" height="33" viewBox="0 0 36 33" fill="none" xmlns="http://www.w3.org/2000/svg">
<g clip-path="url(#clip0_31_1719)">
<path d="M22.6486 33.7121C29.938 33.7377 35.9551 33.4916 35.9121 32.2603C35.8691 31.0291 29.9241 31.1626 22.6408 31.1378C15.3585 31.1129 5.1187 30.9252 5.1617 32.1564C5.2047 33.3877 15.3604 33.6884 22.6487 33.7131L22.6486 33.7121Z" fill="#844C22" fill-opacity="0.15"/>
<path d="M2 19.3199H31.25" stroke="#844C22" stroke-linecap="round" stroke-linejoin="round"/>
<path d="M1.06923 17H34.5152C34.7825 17 35.0387 17.107 35.2266 17.2971C35.4145 17.4873 35.5184 17.7447 35.5153 18.012C35.4752 21.252 34.5482 24.082 32.7352 26.5C30.7352 29.167 28.0682 31.333 24.7352 33H11.2352C7.92623 31.964 5.09323 29.797 2.73523 26.5C0.599226 23.517 -0.285774 20.64 0.0772257 17.87C0.142514 17.372 0.567008 16.9998 1.06923 17Z" fill="#D4162D"/>
<path fill-rule="evenodd" clip-rule="evenodd" d="M11.3108 32.5H24.6158C27.8318 30.874 30.4028 28.775 32.3338 26.2C34.0828 23.868 34.9758 21.142 35.0138 18.006V18C35.0138 17.7239 34.79 17.5 34.5138 17.5H1.07081C0.819702 17.5 0.607455 17.686 0.574811 17.935C0.229811 20.569 1.07681 23.322 3.14181 26.209C5.42181 29.397 8.14381 31.489 11.3118 32.5H11.3108Z" stroke="#844C22"/>
<path opacity="0.209" d="M1 18C1 22.97 6.149 27 12.5 27C18.851 27 24 22.97 24 18H1Z" fill="#F3F3F3"/>
<path d="M3 20.5H32" stroke="#844C22" stroke-linecap="round" stroke-linejoin="round"/>
<path d="M13 10V4.82804C13.1982 3.84226 14.0204 3.10371 15.0217 3.01188C16.023 2.92006 16.9658 3.49676 17.34 4.43004L17.5 4.82804H18.547C19.809 4.82804 21.031 5.27104 22 6.07804C22.95 6.87004 23.5 8.04404 23.5 9.28104V9.32804H26.5C27.0523 9.32804 27.5 9.77575 27.5 10.328V13H31.5C32.0523 13 32.5 13.4478 32.5 14V17H3V14C3 13.4478 3.44772 13 4 13H7.5V11C7.5 10.4478 7.94772 10 8.5 10H13Z" fill="#FBC889" stroke="#844C22"/>
<path d="M6.563 17C6.604 14.714 7.417 13.571 9 13.571C10.04 13.571 8.498 13.802 11.5 13C12.544 12.721 15.544 12.554 20.5 12.5C21.833 12.5 22.5 12 22.5 11C22.5 10 21.833 9.5 20.5 9.5C18.833 9.833 18 9.333 18 8C18 6.667 19.5 6.333 22.5 7L21 5.5C18 4.167 15.833 3.5 14.5 3.5C13.167 3.5 12.833 5.648 13.5 9.945H8L6.562 13.571L3.5 13.5L3 17H6.563Z" fill="#F6E7B5"/>
<path d="M3 17.5V14C3 13.4477 3.44772 13 4 13H7.5V11C7.5 10.4477 7.94772 10 8.5 10H16" stroke="#844C22" stroke-linecap="round" stroke-linejoin="round"/>
<path d="M13 10V4.82804C13.1982 3.84226 14.0204 3.10371 15.0217 3.01188C16.023 2.92006 16.9658 3.49676 17.34 4.43004L17.5 4.82804H18.547C19.809 4.82804 21.031 5.27104 22 6.07804C22.95 6.87004 23.5 8.04404 23.5 9.28104V9.32804H26.5C27.0523 9.32804 27.5 9.77575 27.5 10.328V13H31.5C32.0523 13 32.5 13.4478 32.5 14V17" stroke="#844C22"/>
<path d="M21 13H31M11 13H15.5H11Z" stroke="#844C22" stroke-linecap="round" stroke-linejoin="round"/>
<path d="M8.5 12.5V11H12M4 16.5V14H6L4 16.5Z" stroke="#F3F3F3" stroke-linecap="round" stroke-linejoin="round"/>
<path d="M14 9.5V5C14.212 4.333 14.628 4 15.25 4C15.872 4 16.455 4.5 17 5.5" stroke="#F3F3F3"/>
</g>
<defs>
<clipPath id="clip0_31_1719">
<rect width="36" height="33" fill="white"/>
</clipPath>
</defs>
</svg>
