<svg width="25" height="45" viewBox="0 0 25 45" fill="none" xmlns="http://www.w3.org/2000/svg">
<g clip-path="url(#clip0_31_1696)">
<path d="M17.0458 15.985L14.4658 16.902L14.1348 21.619L16.7678 20.46L17.0458 15.985Z" fill="#D4162D" stroke="#844C22"/>
<path fill-rule="evenodd" clip-rule="evenodd" d="M15.474 39L18.117 1H15.474L13 39H15.474Z" stroke="#844C22" stroke-linecap="round" stroke-linejoin="round"/>
<path d="M17.868 2.08606L15.388 3.13506L15 8.51806L17.54 7.34806L17.85 2.37806L17.868 2.08606Z" fill="#D4162D" stroke="#844C22"/>
<path opacity="0.579" d="M16.4158 1.61597L14.6328 29.762" stroke="#F3F3F3"/>
<path d="M11.661 44.429C18.101 44.429 23.815 43.404 23.815 42.549C23.815 41.692 18.101 41 11.661 41C5.221 41 0 41.693 0 42.548C0 43.404 5.22 44.43 11.661 44.43V44.429Z" fill="#844C22" fill-opacity="0.2"/>
<path d="M1 16H24" stroke="#844C22"/>
<path d="M2 13H23" stroke="#F3F3F3"/>
<path opacity="0.812" d="M3 12.007C3.04 12.002 3.08 12 3.121 12L3 12.007ZM21.985 21.684L19.168 40.875C19.0222 41.8581 18.1779 42.5858 17.184 42.585H7.409C6.39691 42.5856 5.54324 41.8314 5.419 40.827L3 21.001C3.993 19.391 5.826 18.752 8.5 19.086C12.511 19.586 13.013 23.586 16.021 23.586C18.027 23.586 20.015 22.952 21.985 21.684Z" fill="#F6E7B5"/>
<path opacity="0.812" d="M20.91 25L18.996 40.56C18.8502 41.5431 18.0059 42.2708 17.012 42.27H7.237C6.22491 42.2706 5.37124 41.5164 5.247 40.512L4 31.105C4.096 28.292 5.481 27.052 8.156 27.385C12.166 27.885 12.147 25.255 15.156 25.255C17.161 25.255 19.08 25.17 20.911 25H20.91Z" fill="#FBC889"/>
<path d="M3 12.007C3.04 12.002 3.08 12 3.121 12L3 12.007Z" fill="#F6E7B5"/>
<path d="M8 40H17M2 12H23C23.5523 12 24 12.4477 24 13V16.055H22.5L19.014 40.285C18.8723 41.2695 18.0286 42 17.034 42H7.301C6.28565 42 5.43127 41.2396 5.314 40.231L2.5 16.055H1V13C1 12.4477 1.44772 12 2 12Z" stroke="#844C22" stroke-linecap="round" stroke-linejoin="round"/>
<path opacity="0.826" d="M3.64258 17.2371L6.32058 40.1601C6.37994 40.6639 6.80722 41.0435 7.31458 41.0431H12.7626" stroke="#F3F3F3" stroke-linecap="round" stroke-linejoin="round"/>
<path d="M16.5 28.5C17.0523 28.5 17.5 28.0523 17.5 27.5C17.5 26.9477 17.0523 26.5 16.5 26.5C15.9477 26.5 15.5 26.9477 15.5 27.5C15.5 28.0523 15.9477 28.5 16.5 28.5Z" fill="#F3F3F3"/>
<path opacity="0.877" d="M11.5 29.5C12.0523 29.5 12.5 29.0523 12.5 28.5C12.5 27.9477 12.0523 27.5 11.5 27.5C10.9477 27.5 10.5 27.9477 10.5 28.5C10.5 29.0523 10.9477 29.5 11.5 29.5Z" fill="#F3F3F3"/>
<path d="M7.5 21.5C8.05228 21.5 8.5 21.0523 8.5 20.5C8.5 19.9477 8.05228 19.5 7.5 19.5C6.94772 19.5 6.5 19.9477 6.5 20.5C6.5 21.0523 6.94772 21.5 7.5 21.5Z" fill="#F3F3F3"/>
<path opacity="0.731" d="M15.5 32C16.3284 32 17 31.3284 17 30.5C17 29.6716 16.3284 29 15.5 29C14.6716 29 14 29.6716 14 30.5C14 31.3284 14.6716 32 15.5 32Z" stroke="#F3F3F3"/>
<path d="M6.5 25.5C7.05228 25.5 7.5 25.0523 7.5 24.5C7.5 23.9477 7.05228 23.5 6.5 23.5C5.94772 23.5 5.5 23.9477 5.5 24.5C5.5 25.0523 5.94772 25.5 6.5 25.5Z" fill="#F3F3F3"/>
</g>
<defs>
<clipPath id="clip0_31_1696">
<rect width="25" height="45" fill="white"/>
</clipPath>
</defs>
</svg>
