<svg width="35" height="35" viewBox="0 0 35 35" fill="none" xmlns="http://www.w3.org/2000/svg">
<g clip-path="url(#clip0_31_3014)">
<path d="M13.6285 10.08L7.94683 4.3983C8.34934 3.91815 8.55759 3.30476 8.5306 2.6788C8.50361 2.05284 8.24334 1.45965 7.801 1.01593C7.3288 0.543949 6.68849 0.278809 6.02086 0.278809C5.35322 0.278809 4.71291 0.543949 4.24072 1.01593C3.95468 1.30237 3.74209 1.6537 3.62105 2.03999C3.50002 2.42628 3.47413 2.83609 3.54558 3.23455C3.14713 3.16309 2.73731 3.18899 2.35102 3.31002C1.96473 3.43105 1.61341 3.64364 1.32697 3.92968C0.854985 4.40188 0.589844 5.04219 0.589844 5.70982C0.589844 6.37746 0.854985 7.01777 1.32697 7.48996C1.77068 7.93231 2.36388 8.19258 2.98984 8.21957C3.61579 8.24656 4.22919 8.03831 4.70933 7.6358L10.391 13.3175L13.6285 10.08ZM25.2154 21.6679L30.8981 27.3495C31.3782 26.947 31.9916 26.7388 32.6176 26.7658C33.2435 26.7928 33.8367 27.053 34.2804 27.4954C34.6591 27.8738 34.9072 28.3631 34.9886 28.8922C35.07 29.4214 34.9804 29.9627 34.7329 30.4374C34.4855 30.9121 34.093 31.2954 33.6125 31.5316C33.1321 31.7679 32.5889 31.8446 32.0618 31.7508C32.1554 32.2778 32.0784 32.8209 31.8421 33.3011C31.6058 33.7813 31.2224 34.1736 30.7478 34.4209C30.2731 34.6683 29.732 34.7578 29.203 34.6764C28.674 34.595 28.1848 34.347 27.8064 33.9684C27.3642 33.5246 27.1041 32.9313 27.0773 32.3054C27.0505 31.6794 27.2589 31.0661 27.6616 30.5861L21.9789 24.9044L25.2154 21.6679Z" fill="#FFD983"/>
<path d="M29.1879 15.4379C27.6012 13.8503 25.1891 13.9378 23.127 11.8747C21.0649 9.81262 21.1515 7.40053 19.5638 5.81289C16.1465 2.39553 12.7408 4.38664 8.56508 8.56331C4.38841 12.74 2.39827 16.1457 5.81466 19.5621C7.4023 21.1497 9.81438 21.0632 11.8765 23.1253C13.9395 25.1873 13.852 27.6004 15.4397 29.1861C18.857 32.6035 22.2627 30.6133 26.4394 26.4366C30.6161 22.26 32.6042 18.8553 29.1879 15.4379Z" fill="#C1694F"/>
<path d="M13.6105 22.3611C13.4564 22.361 13.3045 22.3243 13.1674 22.254C13.0303 22.1837 12.9118 22.0819 12.8218 21.9568C12.7318 21.8318 12.6728 21.6871 12.6497 21.5348C12.6266 21.3824 12.64 21.2268 12.6888 21.0806C13.767 17.8451 17.8465 13.7666 21.081 12.6884C21.2026 12.6461 21.3314 12.6283 21.4599 12.6361C21.5885 12.6439 21.7141 12.6771 21.8297 12.7339C21.9453 12.7907 22.0484 12.8699 22.1331 12.9668C22.2178 13.0638 22.2824 13.1766 22.3232 13.2988C22.364 13.4209 22.38 13.5499 22.3705 13.6783C22.361 13.8067 22.3261 13.932 22.2678 14.0468C22.2095 14.1616 22.1289 14.2636 22.0309 14.3471C21.9328 14.4305 21.8191 14.4936 21.6965 14.5327C19.0851 15.4029 15.4033 19.0847 14.5331 21.6961C14.397 22.1034 14.0178 22.3611 13.6105 22.3611Z" fill="#662113"/>
</g>
<defs>
<clipPath id="clip0_31_3014">
<rect width="35" height="35" fill="white"/>
</clipPath>
</defs>
</svg>
