<svg width="36" height="40" viewBox="0 0 36 40" fill="none" xmlns="http://www.w3.org/2000/svg">
<g clip-path="url(#clip0_31_1635)">
<path d="M14 39C20.6274 39 26 38.1046 26 37C26 35.8954 20.6274 35 14 35C7.37258 35 2 35.8954 2 37C2 38.1046 7.37258 39 14 39Z" fill="#844C22" fill-opacity="0.15"/>
<path d="M5.93389 1.71404C10.6969 1.38404 16.1269 2.98004 22.2239 6.50004C28.3199 10.02 32.4999 13.78 34.7629 17.781L34.7609 18.277C34.7572 19.0727 34.3598 19.8149 33.6997 20.259C33.0395 20.7031 32.2022 20.7915 31.4639 20.495C28.6869 16.198 24.9399 12.687 20.2239 9.96504C15.5069 7.24104 10.5099 5.89504 5.23389 5.92804L5.2089 5.90304C4.6247 5.29903 4.36403 4.45237 4.50734 3.62438C4.65064 2.79638 5.18069 2.08658 5.93389 1.71404Z" fill="#F6E7B5" stroke="#844C22" stroke-linecap="round" stroke-linejoin="round"/>
<path d="M5.20828 3.13501C10.5143 3.29501 15.8353 4.91501 21.1693 7.99501C26.5043 11.075 30.6673 14.987 33.6593 19.73C33.1921 20.1209 32.6024 20.335 31.9933 20.335H31.8863C28.1983 15.425 24.2913 11.777 20.1643 9.39501C16.0373 7.01201 11.0523 5.64501 5.20828 5.29501L5.17428 5.17001C4.99353 4.50204 5.00532 3.79657 5.20828 3.13501Z" fill="#FFB46B"/>
<path d="M2.40625 37.782L5.32325 5.77197C10.9263 6.06697 15.8933 7.46397 20.2233 9.96397C24.5533 12.464 28.2472 16.067 31.3032 20.773L4.53625 39.012L2.40725 37.782H2.40625Z" fill="#F83825" stroke="#844C22" stroke-linecap="round" stroke-linejoin="round"/>
<path d="M2.35352 37.752L4.85052 10.905C10.5765 7.75201 15.7005 7.43801 20.2215 9.96501C24.7435 12.49 27.0045 17.055 27.0045 23.66L4.56752 39.03L2.35352 37.752Z" fill="#F3F3F3" stroke="#844C22" stroke-linecap="round" stroke-linejoin="round"/>
<path d="M3.59907 37.9112L5.90223 12.132C11.0104 9.42433 15.5431 9.21344 19.5009 11.4984C23.4586 13.7834 25.4402 17.9932 25.4461 24.127L4.57019 38.4591L3.59957 37.9103L3.59907 37.9112Z" fill="#F6E7B5"/>
<path d="M3.61919 37.9321L4.56859 38.4837L6.50738 37.1216C10.101 31.8213 12.6596 29.0457 14.1842 28.799C16.4707 28.4286 20.7171 27.1437 20.7097 25.1625C20.7012 23.1831 16.7146 19.6921 14.2027 22.1528C11.6917 24.6141 7.55346 31.6437 6.0088 31.1792C4.46327 30.7141 4.89296 22.4059 5.92969 21.4502C6.96642 20.4945 10.8202 16.4656 9.77766 15.2113C9.08231 14.3757 7.5891 14.502 5.29529 15.591L3.62006 37.9326L3.61919 37.9321Z" fill="#FFB46B"/>
<path d="M16.2717 17.2588C15.3396 15.8812 16.2721 13.4381 18.9163 13.4382C21.5605 13.4383 23.85 15.1389 23.8505 18.758C23.8508 21.1715 24.1923 23.0938 24.8744 24.5245L22.0013 26.5088C22.513 22.3425 22.4634 19.7585 21.8522 18.759C20.937 17.2583 17.2043 18.6355 16.2722 17.2579L16.2717 17.2588Z" fill="#FFB46B"/>
<path d="M11.9611 13.2766C10.2871 12.3101 8.14651 12.8836 7.18001 14.5577C6.21351 16.2317 6.78707 18.3722 8.4611 19.3387C10.1351 20.3052 12.2757 19.7317 13.2422 18.0577C14.2087 16.3836 13.6351 14.2431 11.9611 13.2766Z" fill="#E2475A" stroke="#844C22"/>
<path d="M12.007 13.9304C11.219 13.1013 8.88874 12.8713 7.73569 14.6005C7.22504 15.3414 7.0739 16.2723 7.32395 17.1367C7.574 18.001 8.19882 18.7075 9.02614 19.0614C7.80576 17.5831 7.60377 16.231 8.41831 15.0061C9.23285 13.7813 10.4295 13.4226 12.007 13.9304Z" fill="#EE8E9A"/>
<path d="M11.0773 16.8076C10.599 16.5315 9.98745 16.6954 9.71131 17.1736C9.43517 17.6519 9.59904 18.2635 10.0773 18.5397C10.5556 18.8158 11.1672 18.6519 11.4434 18.1736C11.7195 17.6954 11.5556 17.0838 11.0773 16.8076Z" fill="#EE8E9A"/>
<path d="M9.84491 14.9417C9.36662 14.6655 8.75503 14.8294 8.47889 15.3077C8.20274 15.786 8.36662 16.3976 8.84491 16.6737C9.3232 16.9498 9.9348 16.786 10.2109 16.3077C10.4871 15.8294 10.3232 15.2178 9.84491 14.9417Z" fill="#EE8E9A"/>
<path d="M12.0773 15.0756C11.599 14.7994 10.9875 14.9633 10.7113 15.4416C10.4352 15.9199 10.599 16.5315 11.0773 16.8076C11.5556 17.0838 12.1672 16.9199 12.4434 16.4416C12.7195 15.9633 12.5556 15.3517 12.0773 15.0756Z" fill="#EE8E9A"/>
<path d="M11.9591 23.2762C10.2851 22.3097 8.14456 22.8833 7.17806 24.5573C6.21156 26.2313 6.78512 28.3719 8.45915 29.3384C10.1332 30.3049 12.2737 29.7313 13.2402 28.0573C14.2067 26.3833 13.6332 24.2427 11.9591 23.2762Z" fill="#E2475A" stroke="#844C22"/>
<path d="M12.005 23.93C11.217 23.1009 8.88678 22.871 7.73374 24.6001C7.22309 25.341 7.07195 26.2719 7.322 27.1363C7.57204 28.0007 8.19687 28.7072 9.02419 29.061C7.80381 27.5827 7.60182 26.2306 8.41636 25.0058C9.2309 23.781 10.4276 23.4222 12.005 23.93Z" fill="#EE8E9A"/>
<path d="M11.0754 26.8073C10.5971 26.5311 9.9855 26.695 9.70936 27.1733C9.43321 27.6516 9.59709 28.2632 10.0754 28.5393C10.5537 28.8154 11.1653 28.6516 11.4414 28.1733C11.7175 27.695 11.5537 27.0834 11.0754 26.8073Z" fill="#EE8E9A"/>
<path d="M9.84296 24.9413C9.36467 24.6651 8.75308 24.829 8.47693 25.3073C8.20079 25.7856 8.36467 26.3972 8.84296 26.6733C9.32125 26.9495 9.93284 26.7856 10.209 26.3073C10.4851 25.829 10.3213 25.2174 9.84296 24.9413Z" fill="#EE8E9A"/>
<path d="M12.0754 25.0752C11.5971 24.7991 10.9855 24.9629 10.7094 25.4412C10.4332 25.9195 10.5971 26.5311 11.0754 26.8073C11.5537 27.0834 12.1653 26.9195 12.4414 26.4412C12.7175 25.9629 12.5537 25.3513 12.0754 25.0752Z" fill="#EE8E9A"/>
<path d="M20.9591 19.2757C19.2851 18.3092 17.1446 18.8828 16.1781 20.5568C15.2116 22.2308 15.7851 24.3714 17.4591 25.3379C19.1332 26.3044 21.2737 25.7308 22.2402 24.0568C23.2067 22.3828 22.6332 20.2422 20.9591 19.2757Z" fill="#E2475A" stroke="#844C22"/>
<path d="M21.005 19.9295C20.217 19.1004 17.8868 18.8705 16.7337 20.5996C16.2231 21.3405 16.0719 22.2715 16.322 23.1358C16.572 24.0002 17.1969 24.7067 18.0242 25.0605C16.8038 23.5823 16.6018 22.2301 17.4164 21.0053C18.2309 19.7805 19.4276 19.4217 21.005 19.9295Z" fill="#EE8E9A"/>
<path d="M20.0754 22.8068C19.5971 22.5306 18.9855 22.6945 18.7094 23.1728C18.4332 23.6511 18.5971 24.2627 19.0754 24.5388C19.5537 24.815 20.1653 24.6511 20.4414 24.1728C20.7175 23.6945 20.5537 23.0829 20.0754 22.8068Z" fill="#EE8E9A"/>
<path d="M18.843 20.9408C18.3647 20.6647 17.7531 20.8285 17.4769 21.3068C17.2008 21.7851 17.3647 22.3967 17.843 22.6729C18.3213 22.949 18.9328 22.7851 19.209 22.3068C19.4851 21.8285 19.3213 21.2169 18.843 20.9408Z" fill="#EE8E9A"/>
<path d="M21.0754 21.0747C20.5971 20.7986 19.9855 20.9624 19.7094 21.4407C19.4332 21.919 19.5971 22.5306 20.0754 22.8068C20.5537 23.0829 21.1653 22.919 21.4414 22.4407C21.7175 21.9624 21.5537 21.3509 21.0754 21.0747Z" fill="#EE8E9A"/>
</g>
<defs>
<clipPath id="clip0_31_1635">
<rect width="36" height="40" fill="white"/>
</clipPath>
</defs>
</svg>
