<svg width="35" height="35" viewBox="0 0 35 35" fill="none" xmlns="http://www.w3.org/2000/svg">
<path d="M33.0586 16.9458C33.4849 25.1536 26.0796 32.0823 17.1294 32.0823C8.17914 32.0823 0.241145 24.7272 1.14682 16.5727C2.42543 5.11375 10.8962 4.36759 17.1294 4.36759C20.9119 4.36759 32.0997 1.06314 33.0586 16.9458Z" fill="#EF4D3C"/>
<path d="M6.01562 14.7657C9.40625 9.51567 15.2031 11.0469 16.7344 9.07817C16.7344 12.8516 19.4687 10.9922 20.8359 12.6875C22.5859 14.875 23.2422 18.7579 25.3203 19.5235C23.2969 15.2032 26.5781 15.3672 21.9844 9.57036C24.4453 11.1016 25.7031 9.57036 29.0391 10.9375C26.1406 6.3438 21.6016 7.6563 21.6016 7.6563C21.6016 7.6563 24.4453 5.0313 26.8516 6.39849C24.3359 2.67974 17.0625 7.38286 17.0625 7.38286C17.0625 7.38286 14.0547 2.24224 7.60156 7.6563C11.375 6.12505 15.5312 7.6563 15.5312 7.6563C15.5312 7.6563 8.69531 5.96099 6.01562 14.7657Z" fill="#8CC63E"/>
<path d="M6.01562 14.7656C6.01562 14.7656 10.0078 7.38276 16.8984 8.03901C10.8281 5.24994 6.01562 11.1562 6.01562 14.7656Z" fill="#64892F"/>
<path d="M7.60156 7.6562C7.60156 7.6562 12.6328 3.88277 17.0625 7.6562C15.75 3.06246 9.02344 5.19527 7.60156 7.6562Z" fill="#64892F"/>
<path d="M18.1562 8.14844C24.8281 11.2109 22.5859 14.7109 25.3203 19.6328C23.4609 15.5312 28.0547 8.14844 18.1562 8.14844Z" fill="#64892F"/>
<path d="M15.5312 7.65624C15.5312 7.65624 17.0625 5.35937 17.6094 2.51562C17.6641 2.13281 19.3047 2.1875 19.25 2.57031C18.7031 6.23437 20.1797 8.25781 20.1797 8.25781C20.1797 8.25781 19.0312 8.64062 17.6094 8.64062C16.1875 8.69531 15.5312 7.65624 15.5312 7.65624Z" fill="#64892F"/>
<path d="M18.4297 2.84375C18.8827 2.84375 19.25 2.69684 19.25 2.51562C19.25 2.33441 18.8827 2.1875 18.4297 2.1875C17.9766 2.1875 17.6094 2.33441 17.6094 2.51562C17.6094 2.69684 17.9766 2.84375 18.4297 2.84375Z" fill="#8CC63E"/>
</svg>
