<svg width="34" height="34" viewBox="0 0 34 34" fill="none" xmlns="http://www.w3.org/2000/svg">
<path d="M1.11474 16.6813C1.11474 16.6813 1.16786 14.9813 1.11474 14.2375C1.06161 13.5469 1.48661 13.7594 1.96474 13.3875C2.44286 13.0157 2.97411 12.2188 3.29286 12.5375C3.55849 12.8563 4.24911 13.2282 4.62099 12.0063C4.99286 10.7844 5.31161 11.1563 5.57724 10.9438C5.84286 10.7313 6.53349 11.1563 6.85224 10.625C7.17099 10.0938 6.90536 9.93441 7.64911 9.45629C8.39286 8.97816 8.92411 8.39379 9.56161 8.39379C10.1991 8.39379 11.5272 7.86254 11.846 6.90629C12.1647 5.95004 12.5897 6.00316 12.9616 5.79066C13.3335 5.57816 13.5991 5.10004 14.7147 5.10004C15.8304 5.10004 23.0554 4.09066 31.3429 8.50004C31.3429 8.50004 32.3522 9.03129 32.671 9.24379C32.9366 9.45629 32.9897 9.35004 33.0429 11.5282C33.096 13.7594 32.8835 21.1969 32.8835 23.0563C32.8835 24.3313 32.671 24.1719 32.1397 24.225C32.1397 24.225 24.7022 25.3407 23.5866 25.5C22.471 25.6594 22.3647 25.6063 21.9929 25.3407C21.6741 25.075 20.6647 25.075 20.1866 25.6063C19.7085 26.1375 20.0272 26.1375 19.1241 26.1907C18.221 26.2969 13.8116 26.9344 12.9085 27.0938C11.9522 27.2532 11.5804 26.4563 10.571 26.4563C9.50849 26.5094 8.92411 27.625 8.55224 27.6782C8.18036 27.7844 2.60224 28.5813 2.12411 28.6344C1.53974 28.8469 1.11474 29.2188 1.11474 28.6875C1.11474 28.1563 1.00849 26.9875 1.27411 26.8813C1.53974 26.775 1.80536 26.4563 1.80536 25.9782C1.80536 25.1282 1.27411 25.2344 1.27411 23.5344C1.27411 21.8344 1.22099 20.1344 1.38036 19.975C1.38036 19.975 2.07099 19.55 2.07099 18.5407C1.96474 17.2657 1.11474 17.425 1.11474 16.6813Z" fill="#FFCE31"/>
<path d="M1.11525 14.6094C0.955871 13.4938 1.434 13.8125 1.91212 13.3875C2.39025 13.0157 2.9215 12.2188 3.24025 12.5375C3.50587 12.8563 4.1965 13.2282 4.56837 12.0063C4.94025 10.7844 5.259 11.1563 5.52462 10.9438C5.79025 10.7313 6.48087 11.1563 6.79962 10.625C7.11837 10.0938 6.85275 9.93441 7.5965 9.45629C8.34025 8.97816 8.8715 8.39379 9.509 8.39379C10.1465 8.39379 11.4746 7.86254 11.7934 6.90629C12.1121 5.95004 12.5371 6.00316 12.909 5.79066C13.2809 5.57816 13.5465 5.10004 14.6621 5.10004C15.7777 5.10004 23.0027 4.09066 31.2902 8.50004C31.2902 8.50004 32.2996 9.03129 32.6184 9.24379C32.6715 9.24379 33.0965 9.77504 32.3527 9.93441C30.2809 10.4125 25.7652 11.2094 20.7184 12.0063C20.559 12.0594 19.9746 11.475 19.8152 11.475C19.5496 11.5282 19.709 12.1657 19.4965 12.2188C10.784 13.6 1.16837 14.9813 1.11525 14.6094Z" fill="#FFEC40"/>
<path d="M1.91295 14.6094C2.39107 14.5563 5.36607 14.0781 5.57857 14.0781C6.10982 14.025 5.8442 13.7063 6.32232 13.4406C6.74732 13.175 7.59732 13.7063 7.91607 13.6531C8.23482 13.6 16.2036 12.4313 17.0536 12.325C17.9036 12.2188 18.3817 12.1125 18.2223 11.9C18.063 11.6875 17.6911 11.05 19.0723 11.05C20.4536 11.05 20.4536 11.475 20.5598 11.5813C20.6661 11.7406 20.7723 11.7406 21.1442 11.6344C21.5692 11.5813 23.8005 11.3156 23.8005 11.1563C23.8005 10.9969 24.013 10.7313 24.7036 10.8375C25.3942 10.9438 25.2348 11.1031 25.0223 11.3688C24.8098 11.6344 24.7036 11.8469 24.9161 12.1656C25.1286 12.4844 23.9598 12.0063 23.8536 11.6344C23.7473 11.2094 21.3036 11.9531 20.7723 11.9531C20.2411 11.9531 20.1348 11.7406 19.9755 11.5813C19.8161 11.4219 19.6036 12.2188 20.1348 12.3781C20.6661 12.5906 19.6567 13.1219 19.1786 12.9625C18.7005 12.8031 18.7005 12.2188 18.1692 12.325C17.638 12.4313 8.55358 13.9719 8.12858 13.9719C7.70358 13.9719 7.17232 13.8656 6.85357 14.1844C6.53482 14.5031 4.9942 14.45 4.09107 14.5031C3.13482 14.7688 0.372324 14.875 1.91295 14.6094Z" fill="#D68F00"/>
<path d="M32.5668 9.29685C32.3012 9.08435 31.2387 8.5531 31.2387 8.5531C27.7324 6.69373 24.3855 5.7906 21.623 5.3656C21.8887 5.41873 27.6793 7.01248 29.9637 8.39373C31.5574 9.34998 31.6105 9.45623 31.398 9.77498C31.1855 10.0406 30.7074 10.0406 26.7762 10.8375C26.0324 10.9969 25.5012 11.05 25.5543 11.2094C25.5543 11.3687 26.6699 11.1031 27.8387 10.9969C29.0074 10.8906 32.3012 10.2 32.5668 10.5187C32.673 10.6781 32.8324 11.8469 32.8855 12.6969V11.5812C32.8855 9.34998 32.8324 9.50935 32.5668 9.29685Z" fill="#D68F00"/>
<path d="M10.466 26.6156C11.5285 26.5625 11.9004 27.3594 12.8035 27.2531H12.8566C12.6441 27.2 12.4316 27.0406 12.1129 26.775C11.0504 25.8719 9.88164 25.8719 9.45664 26.6156C9.03164 27.3594 8.87227 27.5719 8.44727 27.8906C8.81914 27.7313 9.40352 26.6156 10.466 26.6156Z" fill="#D68F00"/>
<path d="M21.0906 24.7562C19.8156 24.9687 19.6562 26.1906 19.6562 26.1906C19.8156 26.1375 19.8156 25.9781 20.1344 25.6594C20.6125 25.1281 21.6219 25.1281 21.9406 25.3937C22.1 25.5531 22.2062 25.6062 22.4719 25.6594C21.8344 25.5531 22.2062 24.4906 21.0906 24.7562Z" fill="#D68F00"/>
<path d="M22.6836 25.7125H22.843C22.7898 25.6593 22.7367 25.7125 22.6836 25.7125Z" fill="#F2B200"/>
<path d="M2.07148 26.1907C2.12461 25.1282 1.27461 24.2782 1.27461 24.2782C1.43398 25.1813 1.75273 25.2344 1.75273 25.9251C1.75273 26.3501 1.48711 26.6688 1.22148 26.8282C1.16836 26.8282 1.16836 26.8813 1.11523 26.9876C1.38086 26.8282 2.07148 27.0938 2.07148 26.1907Z" fill="#D68F00"/>
<path d="M2.0707 17.3188C1.6457 17.2657 1.38008 17.2126 1.2207 17.1063C1.48633 17.4251 1.96445 17.5844 1.96445 18.4876C1.96445 19.4969 1.27383 19.9219 1.27383 19.9219C1.27383 19.9751 1.2207 20.0282 1.2207 20.1344C1.4332 19.7094 1.8582 19.7094 2.33633 19.2844C3.02695 18.7001 3.08008 17.4251 2.0707 17.3188Z" fill="#D68F00"/>
<path d="M12.1117 6.2688C12.0055 6.42817 11.8461 6.58755 11.7398 6.95942C11.4211 7.91567 10.093 8.44692 9.45547 8.44692C9.34922 8.44692 9.24297 8.44692 9.13672 8.50005C9.77422 8.65942 10.4648 9.0313 11.8992 7.65005C12.5898 6.95942 11.5273 7.01255 12.1117 6.2688Z" fill="#D68F00"/>
<path d="M4.78125 24.4375C4.83438 24.5437 4.8875 24.7031 4.94063 24.8094C5.41875 25.9781 8.075 26.5625 8.18125 24.8094V24.225C7.33125 25.1812 5.68438 25.2344 4.78125 24.4375Z" fill="#FFEC40"/>
<path d="M8.18043 24.225C7.96793 22.95 6.63981 22.4719 5.73668 22.7375C4.72731 23.0031 4.51481 23.4812 4.78043 24.4375C5.68356 25.2344 7.33043 25.1812 8.18043 24.225Z" fill="#D68F00"/>
<path d="M12.1117 16.3093C12.1648 16.4687 12.1648 16.6281 12.1648 16.7875C12.1648 18.1156 10.943 19.1781 9.45547 19.1781C8.33984 19.1781 7.33047 18.5406 6.95859 17.6906C6.79922 18.1156 6.74609 18.5937 6.74609 19.1781C6.95859 22.0468 11.3148 21.1437 12.1117 19.1781C12.7492 17.7968 12.8023 16.8937 12.1117 16.3093Z" fill="#FFEC40"/>
<path d="M9.50859 19.1781C10.9961 19.1781 12.218 18.1156 12.218 16.7875C12.218 16.6281 12.218 16.4687 12.1648 16.3094C11.8992 16.0437 11.4742 15.8844 10.8898 15.725C9.50859 15.3531 7.59609 15.9906 7.01172 17.6906C7.38359 18.5937 8.33984 19.1781 9.50859 19.1781Z" fill="#D68F00"/>
<path d="M15.2474 24.2781C14.3974 24.2781 13.6537 23.8531 13.1755 23.2156C12.8568 24.2249 13.0162 25.4999 14.9818 25.6593C17.3193 25.8718 18.3287 23.4281 17.9037 22.1531C17.5318 23.375 16.4693 24.2781 15.2474 24.2781Z" fill="#FFEC40"/>
<path d="M15.2477 24.2781C16.4695 24.2781 17.532 23.375 17.8508 22.1531C17.7977 22.0469 17.7977 21.9938 17.7445 21.8875C17.0008 20.7719 14.6633 20.825 13.6008 22.3656C13.4414 22.5781 13.282 22.8969 13.1758 23.1625C13.6539 23.8531 14.3977 24.2781 15.2477 24.2781Z" fill="#D68F00"/>
<path d="M31.2914 20.7188C31.2383 21.6219 30.3883 22.3656 29.2727 22.3656C28.3695 22.3656 27.6258 21.8344 27.3602 21.1437C27.307 21.4094 27.2539 21.7281 27.2539 22.0469C27.307 23.3219 29.2195 24.1188 30.8664 22.7906C31.7164 22.1531 31.7164 21.3562 31.2914 20.7188Z" fill="#FFEC40"/>
<path d="M29.3242 22.3657C30.3867 22.3657 31.2898 21.6219 31.343 20.7188C30.9711 20.0813 30.1742 19.55 29.5367 19.55C28.368 19.55 27.6773 20.2407 27.4648 21.1438C27.6773 21.8875 28.4211 22.3657 29.3242 22.3657Z" fill="#D68F00"/>
<path d="M25.7117 17.3187V17.4781C25.7117 18.9656 24.3305 20.1875 22.5773 20.1875C21.3555 20.1875 20.293 19.55 19.7617 18.6469C19.868 19.1781 20.1336 19.7625 20.5586 20.4C21.5148 21.8875 23.3742 21.8344 24.3836 20.825C25.4992 19.7625 26.1898 18.4875 25.7117 17.3187Z" fill="#FFEC40"/>
<path d="M22.6311 20.1875C24.3311 20.1875 25.7655 18.9656 25.7655 17.4781V17.3187C25.6592 17 25.4467 16.7344 25.128 16.4687C23.6405 15.1406 20.878 15.7781 20.1873 16.7875C19.8155 17.3719 19.7092 17.9562 19.8686 18.6469C20.3467 19.55 21.4092 20.1875 22.6311 20.1875Z" fill="#D68F00"/>
<path d="M30.8129 13.4407V13.5469C30.8129 14.5563 29.8566 15.4063 28.6879 15.4063C27.8379 15.4063 27.1473 14.9813 26.7754 14.3438C26.8816 14.7157 27.041 15.0875 27.3066 15.5125C27.9441 16.5219 29.2191 16.4688 29.9098 15.7782C30.6535 15.0875 31.1316 14.1844 30.8129 13.4407Z" fill="#FFEC40"/>
<path d="M28.688 15.3532C29.8568 15.3532 30.813 14.5032 30.813 13.4938V13.3875C30.7068 13.175 30.6005 12.9625 30.388 12.8032C29.3786 11.9 27.4661 12.325 27.0411 13.0157C26.7755 13.3875 26.7224 13.8125 26.8286 14.2907C27.1474 14.9282 27.838 15.3532 28.688 15.3532Z" fill="#D68F00"/>
<path d="M12.2719 9.82818C12.9094 9.82818 13.4938 9.93443 13.9188 10.1469C13.7594 9.82818 13.3875 9.56255 12.75 9.2438C11.5282 8.76568 9.45628 9.13755 9.56253 10.8376V10.9438C9.88128 10.3063 10.9969 9.82818 12.2719 9.82818Z" fill="#FFC543"/>
<path d="M13.4402 11.4219C13.9184 10.9438 14.0777 10.5188 13.9184 10.1469C13.4402 9.93438 12.8559 9.82812 12.2715 9.82812C10.9965 9.82812 9.93398 10.3063 9.61523 10.9438C9.77461 12.5906 12.1652 12.6969 13.4402 11.4219Z" fill="#D68F00"/>
<path d="M18.2209 6.95936C18.699 6.95936 19.124 7.06561 19.4428 7.27811C19.3365 7.01249 19.124 6.79999 18.7522 6.48124C17.4772 5.47186 15.8303 6.42811 15.9365 8.12811C15.9365 8.23436 15.9897 8.28749 15.9897 8.39374C16.2553 7.59686 17.1584 6.95936 18.2209 6.95936Z" fill="#FFC543"/>
<path d="M18.7527 8.81873C19.4434 8.18123 19.6559 7.75623 19.4434 7.2781C19.0715 7.11873 18.6465 6.95935 18.2215 6.95935C17.1059 6.95935 16.2027 7.54373 15.9902 8.3406C16.2559 9.77498 17.8496 9.77498 18.7527 8.81873Z" fill="#D68F00"/>
<path d="M25.3414 8.28756C25.6602 8.28756 25.9258 8.34069 26.1914 8.39381C26.1383 8.23444 26.0852 8.12819 25.9258 7.96881C24.8102 6.95944 22.207 7.59694 22.207 9.24381C22.207 9.61569 22.4195 9.93444 22.7383 10.0938C22.8977 9.08444 24.0133 8.28756 25.3414 8.28756Z" fill="#FFC543"/>
<path d="M25.3941 9.72185C25.766 9.45623 26.4035 8.92498 26.2441 8.39373C25.9785 8.3406 25.6598 8.28748 25.3941 8.28748C24.066 8.28748 22.9504 9.08435 22.791 10.1469C23.4285 10.5187 24.5441 10.4125 25.3941 9.72185Z" fill="#D68F00"/>
</svg>
