<svg width="50" height="27" viewBox="0 0 50 27" fill="none" xmlns="http://www.w3.org/2000/svg">
<path d="M25 27C38.8071 27 50 25.6569 50 24C50 22.3431 38.8071 21 25 21C11.1929 21 0 22.3431 0 24C0 25.6569 11.1929 27 25 27Z" fill="#844C22" fill-opacity="0.277"/>
<path d="M4 12.5L15.534 1L45 11.679V24H4V12.5Z" fill="#F6E7B5" stroke="#844C22" stroke-linecap="round" stroke-linejoin="round"/>
<path d="M4 12.0001L15.43 0.930054L45 12.0001H4Z" fill="#D4162D" stroke="#844C22" stroke-linecap="round" stroke-linejoin="round"/>
<path d="M5 19H45V24H5V19Z" fill="#F8BAC1"/>
<path d="M43.327 20.178C43.037 20.37 42.094 21.072 41.845 21.229C41.085 21.709 40.33 21.924 39.29 21.929C37.704 21.935 36.723 21.539 35.207 20.565L35.068 20.475C33.9 19.724 33.342 19.5 32.308 19.5C31.338 19.5 30.989 19.664 30.12 20.375C28.757 21.49 27.805 21.935 26.008 21.928C24.258 21.922 23.27 21.503 21.751 20.445L21.71 20.416C20.669 19.691 20.219 19.5 19.253 19.5C18.243 19.5 17.693 19.72 16.471 20.485L16.4 20.53C14.804 21.53 13.83 21.922 12.218 21.928C10.516 21.935 9.251 21.456 7.712 20.478C7.577 20.392 7.067 20.06 6.947 19.984C6.75899 19.8617 6.56436 19.7499 6.364 19.649C6.161 19.551 6.011 19.505 5.89 19.496L6.11 16.504C6.647 16.544 7.153 16.697 7.674 16.95C7.951 17.084 8.221 17.24 8.55 17.448L9.32 17.945C10.42 18.644 11.181 18.932 12.206 18.928C13.126 18.925 13.646 18.715 14.807 17.988L14.878 17.943C16.537 16.904 17.549 16.5 19.253 16.5C20.959 16.5 21.926 16.911 23.424 17.954L23.466 17.984C24.53 18.724 25.002 18.924 26.019 18.928C26.996 18.932 27.346 18.768 28.218 18.055C29.576 16.945 30.523 16.5 32.308 16.5C34.041 16.5 35.083 16.917 36.692 17.953L36.83 18.042C37.902 18.731 38.4 18.932 39.278 18.928C39.76 18.926 39.965 18.868 40.244 18.692C40.37 18.612 41.279 17.936 41.673 17.675C42.812 16.922 43.909 16.515 44.978 16.5L45.5 16.478V23.5C45.5 24.0523 45.0523 24.5 44.5 24.5H4.5C3.94772 24.5 3.5 24.0523 3.5 23.5V18H5.5V22.5H43.5V20.067C43.4418 20.1032 43.3841 20.1402 43.327 20.178Z" fill="#F8BAC1"/>
<path d="M42.776 19.344C42.451 19.558 41.519 20.252 41.311 20.384C40.711 20.762 40.14 20.925 39.286 20.928C37.936 20.934 37.116 20.604 35.748 19.724L35.61 19.634C34.294 18.788 33.575 18.5 32.309 18.5C31.067 18.5 30.519 18.757 29.487 19.601C28.287 20.583 27.536 20.934 26.012 20.928C24.506 20.923 23.69 20.577 22.322 19.624L22.282 19.595C21.088 18.765 20.465 18.5 19.252 18.5C18.012 18.5 17.308 18.781 15.94 19.638L15.869 19.683C14.418 20.591 13.595 20.923 12.214 20.928C10.738 20.934 9.641 20.518 8.248 19.633C8.12 19.553 7.608 19.219 7.481 19.139C7.26181 18.9964 7.03479 18.8662 6.801 18.749C6.492 18.599 6.223 18.518 5.963 18.499L6.037 17.501C6.435 17.531 6.823 17.648 7.237 17.85C7.475 17.965 7.715 18.104 8.015 18.293C8.15 18.378 8.663 18.713 8.785 18.789C10.03 19.581 10.959 19.933 12.21 19.929C13.36 19.924 14.032 19.653 15.338 18.835L15.409 18.79C16.922 17.843 17.781 17.5 19.253 17.5C20.713 17.5 21.507 17.838 22.853 18.775L22.894 18.804C24.11 19.651 24.754 19.924 26.015 19.928C27.266 19.933 27.816 19.676 28.851 18.829C30.047 17.851 30.795 17.5 32.309 17.5C33.808 17.5 34.689 17.853 36.151 18.794L36.289 18.883C37.509 19.667 38.169 19.933 39.282 19.928C39.95 19.926 40.338 19.815 40.777 19.538C40.945 19.432 41.865 18.747 42.224 18.51C43.216 17.854 44.138 17.512 44.993 17.5L44.5 17.493V24.5H4.5V18V23.5H44.5V18.559C43.982 18.667 43.407 18.927 42.776 19.344Z" fill="#F3F3F3"/>
<path d="M45 15V12H5V15" fill="#FFB46B"/>
<path d="M45 15V12H5V15" stroke="#844C22"/>
<path fill-rule="evenodd" clip-rule="evenodd" d="M4 12.054L15.534 1L45 11.679V24H4V12.054Z" stroke="#844C22" stroke-linecap="round" stroke-linejoin="round"/>
<path d="M22 7C23.6569 7 25 5.65685 25 4C25 2.34315 23.6569 1 22 1C20.3431 1 19 2.34315 19 4C19 5.65685 20.3431 7 22 7Z" fill="#FBC889" stroke="#844C22"/>
<path d="M21 4C21.5523 4 22 3.55228 22 3C22 2.44772 21.5523 2 21 2C20.4477 2 20 2.44772 20 3C20 3.55228 20.4477 4 21 4Z" fill="#F3F3F3"/>
<path d="M16 2L7 11" stroke="#F3F3F3" stroke-linecap="round" stroke-linejoin="round"/>
<path d="M5.5 12.5V23.5" stroke="#F6E7B5" stroke-width="2"/>
</svg>
