<svg width="44" height="31" viewBox="0 0 44 31" fill="none" xmlns="http://www.w3.org/2000/svg">
<path d="M36.8333 4.33333C36.8333 1.95 34.8833 0 32.5 0H26V4.33333H32.5V10.075L24.96 19.5H17.3333V8.66667H8.66667C3.87833 8.66667 0 12.545 0 17.3333V23.8333H4.33333C4.33333 27.43 7.23667 30.3333 10.8333 30.3333C14.43 30.3333 17.3333 27.43 17.3333 23.8333H27.04L36.8333 11.5917V4.33333ZM10.8333 26C9.64167 26 8.66667 25.025 8.66667 23.8333H13C13 25.025 12.025 26 10.8333 26ZM13 19.5H4.33333V17.3333C4.33333 14.95 6.28333 13 8.66667 13H13V19.5Z" fill="#F4900C"/>
<path d="M6.5 2.16675H17.3333V6.50008H6.5V2.16675ZM36.8333 17.3334C33.2367 17.3334 30.3333 20.2367 30.3333 23.8334C30.3333 27.4301 33.2367 30.3334 36.8333 30.3334C40.43 30.3334 43.3333 27.4301 43.3333 23.8334C43.3333 20.2367 40.43 17.3334 36.8333 17.3334ZM36.8333 26.0001C35.6417 26.0001 34.6667 25.0251 34.6667 23.8334C34.6667 22.6417 35.6417 21.6667 36.8333 21.6667C38.025 21.6667 39 22.6417 39 23.8334C39 25.0251 38.025 26.0001 36.8333 26.0001Z" fill="#F4900C"/>
</svg>
