<svg width="32" height="34" viewBox="0 0 32 34" fill="none" xmlns="http://www.w3.org/2000/svg">
<path d="M15.3058 34C23.6886 34 31 33.1346 31 32.5004C31 31.8662 23.6876 31 15.3058 31C6.92212 31 0 31.4572 0 32.5004C0 33.5436 6.92212 34 15.3058 34Z" fill="#844C22" fill-opacity="0.15"/>
<path d="M5.92459 1H12.0607C12.5281 1 12.9222 1.35915 12.9797 1.8371L15.9931 26.929C16.0255 27.2005 15.9433 27.4733 15.7673 27.6781C15.5914 27.8829 15.3387 28 15.0732 28H9.04731C8.58146 28 8.188 27.6437 8.12838 27.1677L5.00751 2.07572C4.97374 1.80398 5.05492 1.53039 5.23039 1.32456C5.40587 1.11873 5.65871 1.00052 5.92459 1Z" fill="#F3F3F3" stroke="#844C22"/>
<path d="M28.1173 2H23.1407C22.7049 1.99971 22.3342 2.34607 22.268 2.81539L19.0103 25.8923C18.9711 26.1695 19.045 26.4515 19.2126 26.6644C19.3802 26.8773 19.6247 27 19.882 27H24.7439C25.1779 27 25.5476 26.6565 25.6157 26.1894L28.9891 3.1125C29.0296 2.83454 28.9564 2.55117 28.7886 2.33713C28.6209 2.1231 28.3755 2 28.1173 2Z" fill="#F6E7B5" stroke="#844C22"/>
<path d="M28.0983 2H27.5345C27.1518 2 26.8108 2.25756 26.6837 2.64231L19.0512 25.7192C18.9541 26.0132 18.9967 26.3392 19.1656 26.5937C19.3345 26.8481 19.6086 26.9996 19.901 27H24.6493C25.0926 26.9997 25.4701 26.6561 25.5397 26.1894L28.9888 3.1125C29.0302 2.8347 28.9555 2.5515 28.7842 2.3375C28.6129 2.1235 28.3623 2 28.0983 2Z" fill="#FBC889"/>
<path fill-rule="evenodd" clip-rule="evenodd" d="M28.1173 2H23.1407C22.7049 1.99971 22.3342 2.34607 22.268 2.81539L19.0103 25.8923C18.9711 26.1695 19.045 26.4515 19.2126 26.6644C19.3802 26.8773 19.6247 27 19.882 27H24.7439C25.1779 27 25.5476 26.6565 25.6157 26.1894L28.9891 3.1125C29.0296 2.83454 28.9564 2.55117 28.7886 2.33713C28.6209 2.1231 28.3755 2 28.1173 2Z" stroke="#844C22"/>
<path d="M5.92459 1H12.0607C12.5281 1 12.9222 1.35915 12.9797 1.8371L15.9931 26.929C16.0255 27.2005 15.9433 27.4733 15.7673 27.6781C15.5914 27.8829 15.3387 28 15.0732 28H9.04731C8.58146 28 8.188 27.6437 8.12838 27.1677L5.00751 2.07572C4.97374 1.80398 5.05492 1.53039 5.23039 1.32456C5.40587 1.11873 5.65871 1.00052 5.92459 1Z" fill="#F3F3F3" stroke="#844C22"/>
<path d="M5.89203 10C7.07728 9.667 7.8174 9.167 8.11327 8.5C8.55752 7.5 8.68368 6.932 9.00177 5.5C9.29852 4.167 10.6313 3.833 13 4.5L12.5655 1.82C12.4883 1.3449 12.1204 0.999839 11.6912 1H5.88847C5.63332 1 5.39049 1.12347 5.22182 1.33895C5.05316 1.55443 4.97494 1.84112 5.00709 2.126L5.89203 10Z" fill="#F6E7B5" stroke="#844C22" stroke-linecap="round" stroke-linejoin="round"/>
<path d="M5.92459 1H12.0607C12.5281 1 12.9222 1.35915 12.9797 1.8371L15.9931 26.929C16.0255 27.2005 15.9433 27.4733 15.7673 27.6781C15.5914 27.8829 15.3387 28 15.0732 28H9.04731C8.58146 28 8.188 27.6437 8.12838 27.1677L5.00751 2.07572C4.97374 1.80398 5.05492 1.53039 5.23039 1.32456C5.40587 1.11873 5.65871 1.00052 5.92459 1Z" fill="#F3F3F3" stroke="#844C22"/>
<path d="M23.105 9H18.0577C17.6149 9 17.2386 9.34044 17.1726 9.80094L14.01 31.9186C13.9711 32.1898 14.0467 32.4654 14.217 32.6732C14.3872 32.881 14.6352 33.0003 14.896 33H19.8019C20.2426 33 20.6177 32.6626 20.6861 32.2047L23.9892 10.0871C24.0297 9.81527 23.9552 9.53844 23.7851 9.32938C23.6151 9.12032 23.3666 9 23.105 9Z" fill="#F6E7B5" stroke="#844C22"/>
<path d="M23.0925 9H21.1939C20.7902 8.99976 20.4348 9.27494 20.321 9.67577L14.0369 31.7934C13.9561 32.0779 14.0096 32.3852 14.1812 32.6226C14.3528 32.86 14.6224 33 14.9089 33H19.7354C20.1828 32.9996 20.5635 32.6623 20.6328 32.2047L23.989 10.0871C24.0302 9.8156 23.9546 9.53908 23.7823 9.3301C23.6099 9.12111 23.3579 9.00053 23.0925 9Z" fill="#FBC889"/>
<path fill-rule="evenodd" clip-rule="evenodd" d="M23.105 9H18.0577C17.6149 9 17.2386 9.34044 17.1726 9.80094L14.01 31.9186C13.9711 32.1898 14.0467 32.4654 14.217 32.6732C14.3872 32.881 14.6352 33.0003 14.896 33H19.8019C20.2426 33 20.6177 32.6626 20.6861 32.2047L23.9892 10.0871C24.0297 9.81527 23.9552 9.53844 23.7851 9.32938C23.6151 9.12032 23.3666 9 23.105 9Z" stroke="#844C22"/>
<path d="M5.92459 1H12.0607C12.5281 1 12.9222 1.35915 12.9797 1.8371L15.9931 26.929C16.0255 27.2005 15.9433 27.4733 15.7673 27.6781C15.5914 27.8829 15.3387 28 15.0732 28H9.04731C8.58146 28 8.188 27.6437 8.12838 27.1677L5.00751 2.07572C4.97374 1.80398 5.05492 1.53039 5.23039 1.32456C5.40587 1.11873 5.65871 1.00052 5.92459 1Z" fill="#F6E7B5" stroke="#844C22"/>
<path d="M9.83124 1.35098L10.5936 1.06383C10.8709 0.959233 11.1827 0.984168 11.4384 1.1314C11.6942 1.27864 11.8653 1.53169 11.902 1.81712L14.9928 25.954C15.0265 26.219 14.941 26.4852 14.758 26.6852C14.5749 26.8853 14.3119 27 14.0356 27H7.96502C7.69398 27 7.43544 26.8899 7.25261 26.6966C7.06978 26.5033 6.97953 26.2446 7.00392 25.9838L9.22139 2.13596C9.25411 1.78373 9.4903 1.47971 9.83124 1.35098Z" fill="#FBC889"/>
<path d="M3 21.5H30" stroke="#F3F3F3"/>
<path d="M5.89243 10C7.07821 9.667 7.81865 9.167 8.11465 8.5C8.5591 7.5 8.68532 6.932 9.00354 5.5C9.30043 4.167 10.632 3.833 13 4.5L12.568 1.822C12.4915 1.34611 12.1232 1 11.6933 1H5.88887C5.63361 1 5.39066 1.12347 5.22192 1.33895C5.05318 1.55443 4.97493 1.84112 5.00709 2.126L5.89243 10Z" fill="#E8404A" stroke="#844C22" stroke-linecap="round" stroke-linejoin="round"/>
<path d="M6.43728 10C7.31447 9.67635 7.89868 9.19185 8.18991 8.54649C8.62719 7.57748 8.75137 7.02709 9.06447 5.63947C9.35657 4.34681 10.6684 4.02414 13 4.67046L12.6476 3.12005C12.5884 2.85928 12.4341 2.63746 12.2216 2.50764C10.8092 1.64522 9.60932 1.88166 8.62369 3.21695C7.02849 5.37784 7.99925 6.21118 7.31184 7.09298C7.08533 7.38368 6.64805 7.54454 6 7.57748L6.43728 10Z" fill="#D2000D"/>
<path d="M15.106 27C15.0708 27.0047 15.0354 27.007 15 27.0069M16 27.9921C15.9637 27.9972 15.9271 27.9999 15.8905 28L16 27.9921Z" stroke="#F3F3F3"/>
<path opacity="0.969" d="M5.54922 2.85195L5.44922 2.14795" stroke="#F3F3F3" stroke-linecap="round" stroke-linejoin="round"/>
<path d="M3 21.5H30" stroke="#F3F3F3"/>
<path fill-rule="evenodd" clip-rule="evenodd" d="M1 21L1.17106 22.9265C1.35198 24.9683 2.19078 26.8903 3.55515 28.3892L7.7525 33H23.5083L28.1612 28.2295C29.5248 26.8314 30.4145 25.0213 30.6993 23.0658L31 21H1Z" stroke="#844C22" stroke-linecap="round" stroke-linejoin="round"/>
<path d="M23.2258 25.9969C16.4516 26.9919 11.0079 23.8347 7.41935 24.0068C5.02671 24.1212 3.22026 24.6138 2 25.4874C2.3919 26.7371 3.0213 27.8803 3.84619 28.8407L7.41935 33H23.2258L28.1872 27.8944C29.0756 26.9806 29.7051 25.8033 30 24.5043C30 24.8357 27.7419 25.3332 23.2258 25.9969Z" fill="#D2142A" stroke="#844C22" stroke-linecap="round" stroke-linejoin="round"/>
<path fill-rule="evenodd" clip-rule="evenodd" d="M5.89243 10C7.07821 9.667 7.81865 9.167 8.11465 8.5C8.5591 7.5 8.68532 6.932 9.00354 5.5C9.30043 4.167 10.632 3.833 13 4.5L12.568 1.822C12.4915 1.34611 12.1232 1 11.6933 1H5.88887C5.63361 1 5.39066 1.12347 5.22192 1.33895C5.05318 1.55443 4.97493 1.84112 5.00709 2.126L5.89243 10Z" stroke="#844C22" stroke-linecap="round" stroke-linejoin="round"/>
<path opacity="0.698" d="M8 32.5H24" stroke="#F3F3F3" stroke-linecap="round" stroke-linejoin="round"/>
<path opacity="0.729" d="M1 21C1 24.866 5.47727 28 11 28C16.5227 28 21 24.866 21 21H1Z" fill="#F3F3F3"/>
</svg>
